<?xml version="1.0" standalone="no"?><!DOCTYPE svg PUBLIC "-//W3C//DTD SVG 1.1//EN" "http://www.w3.org/Graphics/SVG/1.1/DTD/svg11.dtd"><svg class="icon" width="200px" height="200.00px" viewBox="0 0 1024 1024" version="1.1" xmlns="http://www.w3.org/2000/svg"><path fill="#e6e6e6" d="M491.648 403.424l-103.776 103.744a32 32 0 1 1-45.248-45.248l158.4-158.4a32 32 0 0 1 45.248 0l158.4 158.4a32 32 0 0 1-45.248 45.248l-103.776-103.744v317.728a32 32 0 1 1-64 0v-317.76zM512 64a448 448 0 0 1 448 448c0 247.424-200.576 448-448 448S64 759.424 64 512 264.576 64 512 64z m0 832a384 384 0 0 0 384-384c0-212.064-171.936-384-384-384S128 299.936 128 512s171.936 384 384 384z"  /></svg>