<?xml version="1.0" standalone="no"?><!DOCTYPE svg PUBLIC "-//W3C//DTD SVG 1.1//EN" "http://www.w3.org/Graphics/SVG/1.1/DTD/svg11.dtd"><svg class="icon" width="200px" height="200.00px" viewBox="0 0 1024 1024" version="1.1" xmlns="http://www.w3.org/2000/svg"><path fill="#e6e6e6" d="M544 615.776l105.376-105.376a32 32 0 0 1 45.248 45.248l-158.4 158.4a31.904 31.904 0 0 1-24.224 9.312 31.904 31.904 0 0 1-24.224-9.312l-158.4-158.4a32 32 0 1 1 45.248-45.248L480 615.776V320a32 32 0 0 1 64 0v295.776zM512 64a448 448 0 0 1 448 448c0 247.424-200.576 448-448 448S64 759.424 64 512 264.576 64 512 64z m0 832a384 384 0 0 0 384-384c0-212.064-171.936-384-384-384S128 299.936 128 512s171.936 384 384 384z"  /></svg>