<?xml version="1.0" standalone="no"?><!DOCTYPE svg PUBLIC "-//W3C//DTD SVG 1.1//EN" "http://www.w3.org/Graphics/SVG/1.1/DTD/svg11.dtd"><svg t="1649508293589" class="icon" viewBox="0 0 1024 1024" version="1.1" xmlns="http://www.w3.org/2000/svg" p-id="4906" xmlns:xlink="http://www.w3.org/1999/xlink" width="200" height="200"><defs><style type="text/css">@font-face { font-family: feedback-iconfont; src: url("//at.alicdn.com/t/font_1031158_u69w8yhxdu.woff2?t=1630033759944") format("woff2"), url("//at.alicdn.com/t/font_1031158_u69w8yhxdu.woff?t=1630033759944") format("woff"), url("//at.alicdn.com/t/font_1031158_u69w8yhxdu.ttf?t=1630033759944") format("truetype"); }
</style></defs><path d="M660.96 512.128c0 8.16-3.104 16.32-9.216 22.4l-181.216 181.216a31.84 31.84 0 0 1-45.152-0.096 32.128 32.128 0 0 1-0.096-45.152L583.776 512l-158.496-158.496a31.84 31.84 0 0 1 0.096-45.152c12.48-12.48 32.96-12.32 45.12-0.096l181.248 181.216a31.68 31.68 0 0 1 9.344 22.464z" fill="#e6e6e6" p-id="4907"></path><path d="M64 192.16C64 156.736 92.8 128 127.712 128H896.32C931.488 128 960 156.704 960 192.16v639.68C960 867.264 931.2 896 896.288 896H127.68C92.512 896 64 867.296 64 831.84V192.16z m64 31.584v576.512c0 17.184 14.336 31.744 32 31.744h704c17.696 0 32-14.208 32-31.744V223.744C896 206.56 881.664 192 864 192H160c-17.696 0-32 14.208-32 31.744z" fill="#e6e6e6" p-id="4908"></path></svg>