<?xml version="1.0" standalone="no"?>
<!DOCTYPE svg PUBLIC "-//W3C//DTD SVG 20010904//EN"
 "http://www.w3.org/TR/2001/REC-SVG-20010904/DTD/svg10.dtd">
<svg version="1.0" xmlns="http://www.w3.org/2000/svg"
 width="874.000000pt" height="605.000000pt" viewBox="0 0 874.000000 605.000000"
 preserveAspectRatio="xMidYMid meet">

<g transform="translate(0.000000,605.000000) scale(0.100000,-0.100000)"
fill="#000000" stroke="none">
<path d="M525 5901 c-175 -51 -309 -171 -383 -343 l-27 -63 -3 -2365 c-1
-1301 1 -2408 6 -2461 8 -81 15 -108 48 -175 52 -107 150 -206 254 -256 107
-51 139 -58 283 -58 l127 0 0 270 0 270 3505 0 3505 0 0 -271 0 -272 143 5
c119 4 153 9 209 30 92 34 156 78 227 154 86 91 130 187 142 307 4 51 9 1134
9 2427 0 2010 -2 2343 -15 2390 -49 186 -198 344 -384 407 -55 19 -88 23 -198
23 l-133 0 0 -275 0 -275 -3502 2 -3503 3 -3 273 -2 272 -123 -1 c-85 0 -140
-6 -182 -18z m5715 -2136 c67 -34 90 -85 90 -202 0 -69 -4 -93 -22 -125 -31
-55 -78 -81 -147 -82 -115 -2 -171 68 -171 212 0 48 6 97 14 116 37 88 146
126 236 81z m734 10 c38 -8 86 -62 86 -96 0 -26 -3 -29 -32 -29 -26 1 -37 8
-53 33 -39 62 -148 40 -131 -27 5 -19 19 -29 64 -45 92 -33 126 -55 146 -95
50 -101 -64 -191 -197 -155 -51 14 -107 68 -107 103 0 23 4 26 35 26 28 0 37
-5 45 -24 12 -32 39 -46 86 -46 63 0 95 48 57 83 -10 8 -49 27 -88 41 -112 40
-149 100 -110 176 17 33 45 51 95 60 34 7 51 6 104 -5z m558 -12 c32 -15 54
-45 63 -85 7 -27 6 -28 -34 -28 -30 0 -41 4 -41 15 0 26 -38 55 -73 55 -39 0
-77 -24 -77 -49 0 -26 26 -44 106 -74 81 -31 112 -60 120 -108 12 -72 -34
-121 -123 -133 -90 -12 -176 34 -189 102 -6 32 -6 32 35 32 34 0 41 -3 41 -19
0 -45 103 -70 142 -34 42 37 17 72 -75 102 -86 29 -127 65 -134 117 -5 36 -1
45 27 77 47 54 139 67 212 30z m-917 -85 c20 -57 54 -152 76 -211 l39 -108
-41 3 c-39 3 -42 6 -58 48 l-17 45 -74 0 -74 0 -17 -45 c-16 -42 -19 -45 -58
-48 l-41 -3 24 65 c14 36 49 131 78 211 l52 145 37 0 37 0 37 -102z m595 -109
l0 -210 -37 3 -38 3 -3 195 c-1 107 0 200 2 207 3 7 21 13 41 13 l35 0 0 -211z
m-485 -439 c4 -7 12 -7 25 0 69 37 131 -41 109 -137 -10 -49 -34 -65 -86 -61
l-43 3 0 -42 c0 -36 -3 -43 -20 -43 -19 0 -20 7 -20 145 0 120 3 145 14 145 8
0 18 -5 21 -10z m222 -1 c8 -8 13 -8 17 0 12 19 46 13 46 -9 0 -13 -7 -20 -18
-20 -33 0 -42 -22 -42 -97 0 -66 -2 -73 -20 -73 -19 0 -20 7 -20 105 0 106 7
124 37 94z m213 -4 c54 -28 64 -123 18 -172 -32 -34 -99 -32 -127 2 -43 55
-34 142 17 170 35 18 56 18 92 0z"/>
<path d="M6101 3692 c-50 -50 -52 -185 -4 -243 19 -23 33 -29 63 -29 71 0 111
85 94 197 -9 60 -48 103 -94 103 -21 0 -41 -9 -59 -28z"/>
<path d="M6530 3645 c-21 -52 -40 -107 -40 -116 0 -5 23 -9 50 -9 28 0 50 4
50 8 0 4 -11 39 -24 78 l-24 69 -12 -30z"/>
<path d="M6742 3088 c-7 -7 -12 -33 -12 -60 0 -46 16 -68 49 -68 35 0 54 77
31 121 -12 21 -50 25 -68 7z"/>
<path d="M7082 3088 c-18 -18 -15 -94 4 -112 41 -42 82 2 74 79 -4 42 -50 61
-78 33z"/>
</g>
</svg>
